{
	"asset":{
		"generator":"Khronos glTF Blender I/O v4.4.56",
		"version":"2.0"
	},
	"scene":0,
	"scenes":[
		{
			"name":"Scene",
			"nodes":[
				0
			]
		}
	],
	"nodes":[
		{
			"mesh":0,
			"name":"Sphere"
		}
	],
	"meshes":[
		{
			"name":"Sphere.001",
			"primitives":[
				{
					"attributes":{
						"POSITION":0,
						"NORMAL":1,
						"TEXCOORD_0":2
					},
					"indices":3
				}
			]
		}
	],
	"accessors":[
		{
			"bufferView":0,
			"componentType":5126,
			"count":4032,
			"max":[
				0.9999997019767761,
				1,
				0.9999993443489075
			],
			"min":[
				-0.9999990463256836,
				-1,
				-0.9999988079071045
			],
			"type":"VEC3"
		},
		{
			"bufferView":1,
			"componentType":5126,
			"count":4032,
			"type":"VEC3"
		},
		{
			"bufferView":2,
			"componentType":5126,
			"count":4032,
			"type":"VEC2"
		},
		{
			"bufferView":3,
			"componentType":5123,
			"count":5952,
			"type":"SCALAR"
		}
	],
	"bufferViews":[
		{
			"buffer":0,
			"byteLength":48384,
			"byteOffset":0,
			"target":34962
		},
		{
			"buffer":0,
			"byteLength":48384,
			"byteOffset":48384,
			"target":34962
		},
		{
			"buffer":0,
			"byteLength":32256,
			"byteOffset":96768,
			"target":34962
		},
		{
			"buffer":0,
			"byteLength":11904,
			"byteOffset":129024,
			"target":34963
		}
	],
	"buffers":[
		{
			"byteLength":140928,
			"uri":"sphere.bin"
		}
	]
}
