{
	"asset":{
		"generator":"Khronos glTF Blender I/O v4.4.56",
		"version":"2.0"
	},
	"scene":0,
	"scenes":[
		{
			"name":"Scene",
			"nodes":[
				0
			]
		}
	],
	"nodes":[
		{
			"mesh":0,
			"name":"Sphere"
		}
	],
	"meshes":[
		{
			"name":"Sphere",
			"primitives":[
				{
					"attributes":{
						"POSITION":0,
						"NORMAL":1,
						"TEXCOORD_0":2
					},
					"indices":3
				}
			]
		}
	],
	"accessors":[
		{
			"bufferView":0,
			"componentType":5126,
			"count":1207877,
			"max":[
				0.9999815821647644,
				1,
				0.9999961256980896
			],
			"min":[
				-0.999977707862854,
				-1,
				-1
			],
			"type":"VEC3"
		},
		{
			"bufferView":1,
			"componentType":5126,
			"count":1207877,
			"type":"VEC3"
		},
		{
			"bufferView":2,
			"componentType":5126,
			"count":1207877,
			"type":"VEC2"
		},
		{
			"bufferView":3,
			"componentType":5125,
			"count":1811700,
			"type":"SCALAR"
		}
	],
	"bufferViews":[
		{
			"buffer":0,
			"byteLength":14494524,
			"byteOffset":0,
			"target":34962
		},
		{
			"buffer":0,
			"byteLength":14494524,
			"byteOffset":14494524,
			"target":34962
		},
		{
			"buffer":0,
			"byteLength":9663016,
			"byteOffset":28989048,
			"target":34962
		},
		{
			"buffer":0,
			"byteLength":7246800,
			"byteOffset":38652064,
			"target":34963
		}
	],
	"buffers":[
		{
			"byteLength":45898864,
			"uri":"sphere.bin"
		}
	]
}
