{
	"asset":{
		"generator":"Khronos glTF Blender I/O v4.4.56",
		"version":"2.0"
	},
	"scene":0,
	"scenes":[
		{
			"name":"Scene",
			"nodes":[
				0
			]
		}
	],
	"nodes":[
		{
			"mesh":0,
			"name":"Sphere"
		}
	],
	"materials":[
		{
			"doubleSided":true,
			"name":"Material.001",
			"pbrMetallicRoughness":{
				"baseColorFactor":[
					0.8006705641746521,
					0.7331243753433228,
					0.0037976037710905075,
					1
				],
				"metallicFactor":0,
				"roughnessFactor":0.5
			}
		}
	],
	"meshes":[
		{
			"name":"Sphere",
			"primitives":[
				{
					"attributes":{
						"POSITION":0,
						"NORMAL":1,
						"TEXCOORD_0":2,
						"COLOR_0":3,
						"COLOR_1":4
					},
					"indices":5,
					"material":0
				}
			]
		}
	],
	"accessors":[
		{
			"bufferView":0,
			"componentType":5126,
			"count":16256,
			"max":[
				2.499999523162842,
				2.5,
				2.4999992847442627
			],
			"min":[
				-2.4999990463256836,
				-2.5,
				-2.5
			],
			"type":"VEC3"
		},
		{
			"bufferView":1,
			"componentType":5126,
			"count":16256,
			"type":"VEC3"
		},
		{
			"bufferView":2,
			"componentType":5126,
			"count":16256,
			"type":"VEC2"
		},
		{
			"bufferView":3,
			"componentType":5121,
			"count":16256,
			"normalized":true,
			"type":"VEC4"
		},
		{
			"bufferView":4,
			"componentType":5123,
			"count":16256,
			"normalized":true,
			"type":"VEC4"
		},
		{
			"bufferView":5,
			"componentType":5123,
			"count":24192,
			"type":"SCALAR"
		}
	],
	"bufferViews":[
		{
			"buffer":0,
			"byteLength":195072,
			"byteOffset":0,
			"target":34962
		},
		{
			"buffer":0,
			"byteLength":195072,
			"byteOffset":195072,
			"target":34962
		},
		{
			"buffer":0,
			"byteLength":130048,
			"byteOffset":390144,
			"target":34962
		},
		{
			"buffer":0,
			"byteLength":65024,
			"byteOffset":520192,
			"target":34962
		},
		{
			"buffer":0,
			"byteLength":130048,
			"byteOffset":585216,
			"target":34962
		},
		{
			"buffer":0,
			"byteLength":48384,
			"byteOffset":715264,
			"target":34963
		}
	],
	"buffers":[
		{
			"byteLength":763648,
			"uri":"sun.bin"
		}
	]
}
